<mxfile host="Electron" agent="Mozilla/5.0 (Windows NT 10.0; Win64; x64) AppleWebKit/537.36 (KHTML, like Gecko) draw.io/25.0.2 Chrome/128.0.6613.186 Electron/32.2.5 Safari/537.36" version="25.0.2">
  <diagram name="Страница — 1" id="5cPYIwxfYxlVh6soF9gB">
    <mxGraphModel dx="1884" dy="1102" grid="1" gridSize="10" guides="1" tooltips="1" connect="1" arrows="1" fold="1" page="1" pageScale="1" pageWidth="827" pageHeight="1169" math="0" shadow="0">
      <root>
        <mxCell id="0" />
        <mxCell id="1" parent="0" />
        <mxCell id="_x--Pfvd_KBV46cEggtU-33" style="rounded=0;orthogonalLoop=1;jettySize=auto;html=1;exitX=0.5;exitY=0.5;exitDx=0;exitDy=0;exitPerimeter=0;entryX=0;entryY=0.5;entryDx=0;entryDy=0;endArrow=none;endFill=0;" edge="1" parent="1" source="Ef4ti5CGPDRuNF2RsOlE-1" target="Ef4ti5CGPDRuNF2RsOlE-6">
          <mxGeometry relative="1" as="geometry" />
        </mxCell>
        <mxCell id="Ef4ti5CGPDRuNF2RsOlE-1" value="&lt;div&gt;User&lt;/div&gt;&lt;div&gt;&lt;br&gt;&lt;/div&gt;" style="shape=umlActor;verticalLabelPosition=bottom;verticalAlign=top;html=1;fillColor=none;" parent="1" vertex="1">
          <mxGeometry x="10" y="555" width="40" height="60" as="geometry" />
        </mxCell>
        <mxCell id="Ef4ti5CGPDRuNF2RsOlE-3" value="" style="rounded=0;whiteSpace=wrap;html=1;fillColor=none;imageHeight=24;movable=0;resizable=0;rotatable=0;deletable=0;editable=0;locked=1;connectable=0;" parent="1" vertex="1">
          <mxGeometry x="70" y="30" width="730" height="1110" as="geometry" />
        </mxCell>
        <mxCell id="Ef4ti5CGPDRuNF2RsOlE-6" value="Просмотр спортивных новостей в реальном времени" style="ellipse;whiteSpace=wrap;html=1;" parent="1" vertex="1">
          <mxGeometry x="120" y="40" width="160" height="60" as="geometry" />
        </mxCell>
        <mxCell id="_x--Pfvd_KBV46cEggtU-4" value="Получение уведомлений о результатах матчей" style="ellipse;whiteSpace=wrap;html=1;" vertex="1" parent="1">
          <mxGeometry x="120" y="140" width="160" height="60" as="geometry" />
        </mxCell>
        <mxCell id="_x--Pfvd_KBV46cEggtU-5" value="Просмотр трансляции" style="ellipse;whiteSpace=wrap;html=1;" vertex="1" parent="1">
          <mxGeometry x="120" y="240" width="160" height="60" as="geometry" />
        </mxCell>
        <mxCell id="_x--Pfvd_KBV46cEggtU-6" value="Детальный анализ матча" style="ellipse;whiteSpace=wrap;html=1;" vertex="1" parent="1">
          <mxGeometry x="120" y="340" width="160" height="60" as="geometry" />
        </mxCell>
        <mxCell id="_x--Pfvd_KBV46cEggtU-7" value="Просмотр турнирной таблицы" style="ellipse;whiteSpace=wrap;html=1;" vertex="1" parent="1">
          <mxGeometry x="120" y="440" width="160" height="60" as="geometry" />
        </mxCell>
        <mxCell id="_x--Pfvd_KBV46cEggtU-9" value="Сохранение избранных команд и матчей" style="ellipse;whiteSpace=wrap;html=1;" vertex="1" parent="1">
          <mxGeometry x="130" y="540" width="160" height="60" as="geometry" />
        </mxCell>
        <mxCell id="_x--Pfvd_KBV46cEggtU-14" style="rounded=0;orthogonalLoop=1;jettySize=auto;html=1;entryX=1;entryY=0.5;entryDx=0;entryDy=0;dashed=1;" edge="1" parent="1" source="_x--Pfvd_KBV46cEggtU-10" target="Ef4ti5CGPDRuNF2RsOlE-6">
          <mxGeometry relative="1" as="geometry" />
        </mxCell>
        <mxCell id="_x--Pfvd_KBV46cEggtU-15" value="extend" style="edgeLabel;html=1;align=center;verticalAlign=middle;resizable=0;points=[];" vertex="1" connectable="0" parent="_x--Pfvd_KBV46cEggtU-14">
          <mxGeometry x="-0.0552" relative="1" as="geometry">
            <mxPoint as="offset" />
          </mxGeometry>
        </mxCell>
        <mxCell id="_x--Pfvd_KBV46cEggtU-10" value="просмотр видое, которое в новости" style="ellipse;whiteSpace=wrap;html=1;" vertex="1" parent="1">
          <mxGeometry x="390" y="40" width="140" height="40" as="geometry" />
        </mxCell>
        <mxCell id="_x--Pfvd_KBV46cEggtU-16" value="просмотр хайлайтов" style="ellipse;whiteSpace=wrap;html=1;" vertex="1" parent="1">
          <mxGeometry x="390" y="110" width="100" height="30" as="geometry" />
        </mxCell>
        <mxCell id="_x--Pfvd_KBV46cEggtU-17" value="просмотр статистики" style="ellipse;whiteSpace=wrap;html=1;" vertex="1" parent="1">
          <mxGeometry x="440" y="150" width="100" height="30" as="geometry" />
        </mxCell>
        <mxCell id="_x--Pfvd_KBV46cEggtU-18" value="просмотр событий" style="ellipse;whiteSpace=wrap;html=1;" vertex="1" parent="1">
          <mxGeometry x="510" y="190" width="100" height="30" as="geometry" />
        </mxCell>
        <mxCell id="_x--Pfvd_KBV46cEggtU-20" style="rounded=0;orthogonalLoop=1;jettySize=auto;html=1;entryX=1;entryY=0.5;entryDx=0;entryDy=0;dashed=1;exitX=0;exitY=0.5;exitDx=0;exitDy=0;" edge="1" parent="1" source="_x--Pfvd_KBV46cEggtU-16" target="_x--Pfvd_KBV46cEggtU-4">
          <mxGeometry relative="1" as="geometry">
            <mxPoint x="401" y="74" as="sourcePoint" />
            <mxPoint x="290" y="80" as="targetPoint" />
          </mxGeometry>
        </mxCell>
        <mxCell id="_x--Pfvd_KBV46cEggtU-21" value="extend" style="edgeLabel;html=1;align=center;verticalAlign=middle;resizable=0;points=[];" vertex="1" connectable="0" parent="_x--Pfvd_KBV46cEggtU-20">
          <mxGeometry x="-0.0552" relative="1" as="geometry">
            <mxPoint as="offset" />
          </mxGeometry>
        </mxCell>
        <mxCell id="_x--Pfvd_KBV46cEggtU-22" style="rounded=0;orthogonalLoop=1;jettySize=auto;html=1;entryX=1;entryY=0.5;entryDx=0;entryDy=0;dashed=1;exitX=0;exitY=0.5;exitDx=0;exitDy=0;" edge="1" parent="1" source="_x--Pfvd_KBV46cEggtU-17" target="_x--Pfvd_KBV46cEggtU-4">
          <mxGeometry relative="1" as="geometry">
            <mxPoint x="400" y="135" as="sourcePoint" />
            <mxPoint x="290" y="180" as="targetPoint" />
          </mxGeometry>
        </mxCell>
        <mxCell id="_x--Pfvd_KBV46cEggtU-23" value="extend" style="edgeLabel;html=1;align=center;verticalAlign=middle;resizable=0;points=[];" vertex="1" connectable="0" parent="_x--Pfvd_KBV46cEggtU-22">
          <mxGeometry x="-0.0552" relative="1" as="geometry">
            <mxPoint as="offset" />
          </mxGeometry>
        </mxCell>
        <mxCell id="_x--Pfvd_KBV46cEggtU-24" style="rounded=0;orthogonalLoop=1;jettySize=auto;html=1;dashed=1;exitX=0;exitY=0.5;exitDx=0;exitDy=0;entryX=1;entryY=0.5;entryDx=0;entryDy=0;" edge="1" parent="1" source="_x--Pfvd_KBV46cEggtU-18" target="_x--Pfvd_KBV46cEggtU-4">
          <mxGeometry relative="1" as="geometry">
            <mxPoint x="450" y="175" as="sourcePoint" />
            <mxPoint x="280" y="170" as="targetPoint" />
          </mxGeometry>
        </mxCell>
        <mxCell id="_x--Pfvd_KBV46cEggtU-25" value="extend" style="edgeLabel;html=1;align=center;verticalAlign=middle;resizable=0;points=[];" vertex="1" connectable="0" parent="_x--Pfvd_KBV46cEggtU-24">
          <mxGeometry x="-0.0552" relative="1" as="geometry">
            <mxPoint as="offset" />
          </mxGeometry>
        </mxCell>
        <mxCell id="_x--Pfvd_KBV46cEggtU-26" value="выбор видео" style="ellipse;whiteSpace=wrap;html=1;" vertex="1" parent="1">
          <mxGeometry x="370" y="240" width="100" height="30" as="geometry" />
        </mxCell>
        <mxCell id="_x--Pfvd_KBV46cEggtU-27" style="rounded=0;orthogonalLoop=1;jettySize=auto;html=1;entryX=0;entryY=0.5;entryDx=0;entryDy=0;dashed=1;exitX=1;exitY=0.5;exitDx=0;exitDy=0;" edge="1" parent="1" source="_x--Pfvd_KBV46cEggtU-5" target="_x--Pfvd_KBV46cEggtU-26">
          <mxGeometry relative="1" as="geometry">
            <mxPoint x="411" y="204" as="sourcePoint" />
            <mxPoint x="290" y="300" as="targetPoint" />
          </mxGeometry>
        </mxCell>
        <mxCell id="_x--Pfvd_KBV46cEggtU-28" value="include" style="edgeLabel;html=1;align=center;verticalAlign=middle;resizable=0;points=[];" vertex="1" connectable="0" parent="_x--Pfvd_KBV46cEggtU-27">
          <mxGeometry x="-0.0552" relative="1" as="geometry">
            <mxPoint as="offset" />
          </mxGeometry>
        </mxCell>
        <mxCell id="_x--Pfvd_KBV46cEggtU-29" value="выбор видео" style="ellipse;whiteSpace=wrap;html=1;" vertex="1" parent="1">
          <mxGeometry x="550" y="240" width="100" height="30" as="geometry" />
        </mxCell>
        <mxCell id="_x--Pfvd_KBV46cEggtU-30" style="rounded=0;orthogonalLoop=1;jettySize=auto;html=1;entryX=0;entryY=0.5;entryDx=0;entryDy=0;dashed=1;exitX=1;exitY=0.5;exitDx=0;exitDy=0;" edge="1" parent="1" source="_x--Pfvd_KBV46cEggtU-26" target="_x--Pfvd_KBV46cEggtU-29">
          <mxGeometry relative="1" as="geometry">
            <mxPoint x="290" y="280" as="sourcePoint" />
            <mxPoint x="380" y="265" as="targetPoint" />
          </mxGeometry>
        </mxCell>
        <mxCell id="_x--Pfvd_KBV46cEggtU-31" value="include" style="edgeLabel;html=1;align=center;verticalAlign=middle;resizable=0;points=[];" vertex="1" connectable="0" parent="_x--Pfvd_KBV46cEggtU-30">
          <mxGeometry x="-0.0552" relative="1" as="geometry">
            <mxPoint as="offset" />
          </mxGeometry>
        </mxCell>
        <mxCell id="_x--Pfvd_KBV46cEggtU-35" style="rounded=0;orthogonalLoop=1;jettySize=auto;html=1;exitX=0.529;exitY=0.404;exitDx=0;exitDy=0;exitPerimeter=0;entryX=0;entryY=0.5;entryDx=0;entryDy=0;endArrow=none;endFill=0;" edge="1" parent="1" source="Ef4ti5CGPDRuNF2RsOlE-1" target="_x--Pfvd_KBV46cEggtU-4">
          <mxGeometry relative="1" as="geometry">
            <mxPoint x="40" y="595" as="sourcePoint" />
            <mxPoint x="130" y="80" as="targetPoint" />
          </mxGeometry>
        </mxCell>
        <mxCell id="_x--Pfvd_KBV46cEggtU-36" style="rounded=0;orthogonalLoop=1;jettySize=auto;html=1;exitX=0.495;exitY=0.37;exitDx=0;exitDy=0;exitPerimeter=0;endArrow=none;endFill=0;" edge="1" parent="1" source="Ef4ti5CGPDRuNF2RsOlE-1">
          <mxGeometry relative="1" as="geometry">
            <mxPoint x="50" y="605" as="sourcePoint" />
            <mxPoint x="120" y="270" as="targetPoint" />
          </mxGeometry>
        </mxCell>
        <mxCell id="_x--Pfvd_KBV46cEggtU-37" style="rounded=0;orthogonalLoop=1;jettySize=auto;html=1;exitX=0.5;exitY=0.5;exitDx=0;exitDy=0;exitPerimeter=0;entryX=0;entryY=0.5;entryDx=0;entryDy=0;endArrow=none;endFill=0;" edge="1" parent="1" source="Ef4ti5CGPDRuNF2RsOlE-1" target="_x--Pfvd_KBV46cEggtU-6">
          <mxGeometry relative="1" as="geometry">
            <mxPoint x="60" y="615" as="sourcePoint" />
            <mxPoint x="150" y="100" as="targetPoint" />
          </mxGeometry>
        </mxCell>
        <mxCell id="_x--Pfvd_KBV46cEggtU-38" style="rounded=0;orthogonalLoop=1;jettySize=auto;html=1;exitX=0.5;exitY=0.5;exitDx=0;exitDy=0;exitPerimeter=0;entryX=0;entryY=0.5;entryDx=0;entryDy=0;endArrow=none;endFill=0;" edge="1" parent="1" source="Ef4ti5CGPDRuNF2RsOlE-1" target="_x--Pfvd_KBV46cEggtU-7">
          <mxGeometry relative="1" as="geometry">
            <mxPoint x="70" y="625" as="sourcePoint" />
            <mxPoint x="160" y="110" as="targetPoint" />
          </mxGeometry>
        </mxCell>
        <mxCell id="_x--Pfvd_KBV46cEggtU-40" style="rounded=0;orthogonalLoop=1;jettySize=auto;html=1;exitX=0.5;exitY=0.5;exitDx=0;exitDy=0;exitPerimeter=0;entryX=0;entryY=0.5;entryDx=0;entryDy=0;endArrow=none;endFill=0;" edge="1" parent="1" source="Ef4ti5CGPDRuNF2RsOlE-1" target="_x--Pfvd_KBV46cEggtU-9">
          <mxGeometry relative="1" as="geometry">
            <mxPoint x="90" y="645" as="sourcePoint" />
            <mxPoint x="180" y="130" as="targetPoint" />
          </mxGeometry>
        </mxCell>
        <mxCell id="_x--Pfvd_KBV46cEggtU-41" value="выбор матча" style="ellipse;whiteSpace=wrap;html=1;" vertex="1" parent="1">
          <mxGeometry x="370" y="355" width="100" height="30" as="geometry" />
        </mxCell>
        <mxCell id="_x--Pfvd_KBV46cEggtU-42" value="просмотр таблиц" style="ellipse;whiteSpace=wrap;html=1;" vertex="1" parent="1">
          <mxGeometry x="560" y="355" width="100" height="30" as="geometry" />
        </mxCell>
        <mxCell id="_x--Pfvd_KBV46cEggtU-43" style="rounded=0;orthogonalLoop=1;jettySize=auto;html=1;entryX=0;entryY=0.5;entryDx=0;entryDy=0;dashed=1;exitX=1;exitY=0.5;exitDx=0;exitDy=0;" edge="1" parent="1" source="_x--Pfvd_KBV46cEggtU-6" target="_x--Pfvd_KBV46cEggtU-41">
          <mxGeometry relative="1" as="geometry">
            <mxPoint x="290" y="280" as="sourcePoint" />
            <mxPoint x="380" y="265" as="targetPoint" />
          </mxGeometry>
        </mxCell>
        <mxCell id="_x--Pfvd_KBV46cEggtU-44" value="include" style="edgeLabel;html=1;align=center;verticalAlign=middle;resizable=0;points=[];" vertex="1" connectable="0" parent="_x--Pfvd_KBV46cEggtU-43">
          <mxGeometry x="-0.0552" relative="1" as="geometry">
            <mxPoint as="offset" />
          </mxGeometry>
        </mxCell>
        <mxCell id="_x--Pfvd_KBV46cEggtU-45" style="rounded=0;orthogonalLoop=1;jettySize=auto;html=1;entryX=0;entryY=0.5;entryDx=0;entryDy=0;dashed=1;exitX=1;exitY=0.5;exitDx=0;exitDy=0;" edge="1" parent="1" source="_x--Pfvd_KBV46cEggtU-41" target="_x--Pfvd_KBV46cEggtU-42">
          <mxGeometry relative="1" as="geometry">
            <mxPoint x="290" y="380" as="sourcePoint" />
            <mxPoint x="380" y="380" as="targetPoint" />
          </mxGeometry>
        </mxCell>
        <mxCell id="_x--Pfvd_KBV46cEggtU-46" value="include" style="edgeLabel;html=1;align=center;verticalAlign=middle;resizable=0;points=[];" vertex="1" connectable="0" parent="_x--Pfvd_KBV46cEggtU-45">
          <mxGeometry x="-0.0552" relative="1" as="geometry">
            <mxPoint as="offset" />
          </mxGeometry>
        </mxCell>
        <mxCell id="_x--Pfvd_KBV46cEggtU-47" value="переход на страницу турнирной таблицы" style="ellipse;whiteSpace=wrap;html=1;" vertex="1" parent="1">
          <mxGeometry x="390" y="440" width="130" height="60" as="geometry" />
        </mxCell>
        <mxCell id="_x--Pfvd_KBV46cEggtU-48" value="просмотр таблицы" style="ellipse;whiteSpace=wrap;html=1;" vertex="1" parent="1">
          <mxGeometry x="630" y="455" width="120" height="30" as="geometry" />
        </mxCell>
        <mxCell id="_x--Pfvd_KBV46cEggtU-50" style="rounded=0;orthogonalLoop=1;jettySize=auto;html=1;entryX=0;entryY=0.5;entryDx=0;entryDy=0;dashed=1;exitX=1;exitY=0.5;exitDx=0;exitDy=0;" edge="1" parent="1" source="_x--Pfvd_KBV46cEggtU-47" target="_x--Pfvd_KBV46cEggtU-48">
          <mxGeometry relative="1" as="geometry">
            <mxPoint x="300" y="475" as="sourcePoint" />
            <mxPoint x="390" y="475" as="targetPoint" />
          </mxGeometry>
        </mxCell>
        <mxCell id="_x--Pfvd_KBV46cEggtU-51" value="include" style="edgeLabel;html=1;align=center;verticalAlign=middle;resizable=0;points=[];" vertex="1" connectable="0" parent="_x--Pfvd_KBV46cEggtU-50">
          <mxGeometry x="-0.0552" relative="1" as="geometry">
            <mxPoint as="offset" />
          </mxGeometry>
        </mxCell>
        <mxCell id="_x--Pfvd_KBV46cEggtU-52" style="rounded=0;orthogonalLoop=1;jettySize=auto;html=1;entryX=0;entryY=0.5;entryDx=0;entryDy=0;dashed=1;exitX=1;exitY=0.5;exitDx=0;exitDy=0;" edge="1" parent="1" source="_x--Pfvd_KBV46cEggtU-7" target="_x--Pfvd_KBV46cEggtU-47">
          <mxGeometry relative="1" as="geometry">
            <mxPoint x="290" y="380" as="sourcePoint" />
            <mxPoint x="380" y="380" as="targetPoint" />
          </mxGeometry>
        </mxCell>
        <mxCell id="_x--Pfvd_KBV46cEggtU-53" value="include" style="edgeLabel;html=1;align=center;verticalAlign=middle;resizable=0;points=[];" vertex="1" connectable="0" parent="_x--Pfvd_KBV46cEggtU-52">
          <mxGeometry x="-0.0552" relative="1" as="geometry">
            <mxPoint as="offset" />
          </mxGeometry>
        </mxCell>
      </root>
    </mxGraphModel>
  </diagram>
</mxfile>
